# xmcd
#
# Track frame offsets: 
#        150
#        16174
#        32473
#        48126
#        64345
#        82225
#        98991
#        117327
#        134213
#        154731
#        173391
#        188431
#        206831
#
# Disc length: 3031 seconds
#
# Revision: 0
# Processed by: cddbd v1.5.2PL0 Copyright (c) Steve Scherf et al.
# Submitted via: ExactAudioCopy v0.99pb4
#
DISCID=aa0bd50d
DTITLE=The Kyle Bennett Band - Grey Sunrise
DYEAR=2009
DGENRE=Country Rock
TTITLE0=Time To Switch To Whiskey
TTITLE1=Should've Listened
TTITLE2=The Road
TTITLE3=Blackbird
TTITLE4=Grey Sunrise
TTITLE5=Crescendo
TTITLE6=When The Lights Go Down
TTITLE7=Devil's On My Train
TTITLE8=Empty Barrels
TTITLE9=One Light Town
TTITLE10=Jimmy and Josie
TTITLE11=Still In Love With You
TTITLE12=Everything To Lose
EXTD=
EXTT0=
EXTT1=
EXTT2=
EXTT3=
EXTT4=
EXTT5=
EXTT6=
EXTT7=
EXTT8=
EXTT9=
EXTT10=
EXTT11=
EXTT12=
PLAYORDER=
